# Blender v3.1.2 OBJ File: ''
# www.blender.org
mtllib axis.mtl
o Cube.001
v 1.000000 -1.000000 1.000000
v 1.000000 1.000000 1.000000
v -1.000000 1.000000 1.000000
v -1.000000 -1.000000 1.000000
v -1.000000 1.000000 -1.000000
v -1.000000 -1.000000 -1.000000
v 1.000000 -1.000000 -1.000000
v -1.000000 1.000000 -11.000000
v -1.000000 -1.000000 -11.000000
v 1.000000 1.000000 -11.000000
v 1.000000 -1.000000 -11.000000
v 1.000000 1.000000 -1.000000
v 11.000000 -1.000000 1.000000
v 11.000000 1.000000 1.000000
v 11.000000 -1.000000 -1.000000
v 11.000000 1.000000 -1.000000
v -1.000000 11.000000 -1.000000
v 1.000000 11.000000 -1.000000
v -1.000000 11.000000 1.000000
v 1.000000 11.000000 1.000000
vn 0.0000 -0.0000 1.0000
vn -1.0000 -0.0000 0.0000
vn 0.0000 -1.0000 -0.0000
vn 0.0000 0.0000 -1.0000
vn 0.0000 1.0000 0.0000
vn 1.0000 0.0000 0.0000
usemtl Material.001
s 1
f 2//1 4//1 1//1
f 3//2 6//2 4//2
f 7//3 4//3 6//3
f 5//2 9//2 6//2
f 8//4 11//4 9//4
f 6//3 11//3 7//3
f 12//5 8//5 5//5
f 7//6 10//6 12//6
f 2//1 3//1 4//1
f 3//2 5//2 6//2
f 7//3 1//3 4//3
f 5//2 8//2 9//2
f 8//4 10//4 11//4
f 6//3 9//3 11//3
f 12//5 10//5 8//5
f 7//6 11//6 10//6
usemtl Material.002
f 1//1 14//1 2//1
f 16//6 13//6 15//6
f 12//4 15//4 7//4
f 7//3 13//3 1//3
f 2//5 16//5 12//5
f 1//1 13//1 14//1
f 16//6 14//6 13//6
f 12//4 16//4 15//4
f 7//3 15//3 13//3
f 2//5 14//5 16//5
usemtl Material.003
f 5//4 18//4 12//4
f 17//5 20//5 18//5
f 2//1 19//1 3//1
f 3//2 17//2 5//2
f 12//6 20//6 2//6
f 5//4 17//4 18//4
f 17//5 19//5 20//5
f 2//1 20//1 19//1
f 3//2 19//2 17//2
f 12//6 18//6 20//6
